<?xml version="1.0" encoding="UTF-8"?>
<svg xmlns="http://www.w3.org/2000/svg" style="display: none;">
<symbol id="eye-slash" viewBox="0 0 640 640">
<path fill="currentColor" d="M73 39.1C63.6 29.7 48.4 29.7 39.1 39.1C29.8 48.5 29.7 63.7 39 73.1L567 601.1C576.4 610.5 591.6 610.5 600.9 601.1C610.2 591.7 610.3 576.5 600.9 567.2L504.5 470.8C507.2 468.4 509.9 466 512.5 463.6C559.3 420.1 590.6 368.2 605.5 332.5C608.8 324.6 608.8 315.8 605.5 307.9C590.6 272.2 559.3 220.2 512.5 176.8C465.4 133.1 400.7 96.2 319.9 96.2C263.1 96.2 214.3 114.4 173.9 140.4L73 39.1zM236.5 202.7C260 185.9 288.9 176 320 176C399.5 176 464 240.5 464 320C464 351.1 454.1 379.9 437.3 403.5L402.6 368.8C415.3 347.4 419.6 321.1 412.7 295.1C399 243.9 346.3 213.5 295.1 227.2C286.5 229.5 278.4 232.9 271.1 237.2L236.4 202.5zM357.3 459.1C345.4 462.3 332.9 464 320 464C240.5 464 176 399.5 176 320C176 307.1 177.7 294.6 180.9 282.7L101.4 203.2C68.8 240 46.4 279 34.5 307.7C31.2 315.6 31.2 324.4 34.5 332.3C49.4 368 80.7 420 127.5 463.4C174.6 507.1 239.3 544 320.1 544C357.4 544 391.3 536.1 421.6 523.4L357.4 459.2z"/>
</symbol>
<symbol id="display-slash" viewBox="0 0 640 640">
<path fill="currentColor" d="M73 39.1C63.6 29.7 48.4 29.7 39.1 39.1C29.8 48.5 29.7 63.7 39 73.1L567 601.1C576.4 610.5 591.6 610.5 600.9 601.1C610.2 591.7 610.3 576.5 600.9 567.2L513.8 480C548.3 479 576 450.8 576 416L576 160C576 124.7 547.3 96 512 96L129.8 96L73 39.1zM193.8 160L512 160L512 416L449.8 416L193.8 160zM314 416L128 416L128 230L64 166L64 416C64 451.3 92.7 480 128 480L272 480L256 528L184 528C170.7 528 160 538.7 160 552C160 565.3 170.7 576 184 576L456 576C461.1 576 465.8 574.4 469.7 571.7L426 528L384 528L368 480L378 480L314 416z"/>
</symbol>
<symbol id="gear" viewBox="0 0 640 640">
<path fill="currentColor" d="M259.1 73.5C262.1 58.7 275.2 48 290.4 48L350.2 48C365.4 48 378.5 58.7 381.5 73.5L396 143.5C410.1 149.5 423.3 157.2 435.3 166.3L503.1 143.8C517.5 139 533.3 145 540.9 158.2L570.8 210C578.4 223.2 575.7 239.8 564.3 249.9L511 297.3C511.9 304.7 512.3 312.3 512.3 320C512.3 327.7 511.8 335.3 511 342.7L564.4 390.2C575.8 400.3 578.4 417 570.9 430.1L541 481.9C533.4 495 517.6 501.1 503.2 496.3L435.4 473.8C423.3 482.9 410.1 490.5 396.1 496.6L381.7 566.5C378.6 581.4 365.5 592 350.4 592L290.6 592C275.4 592 262.3 581.3 259.3 566.5L244.9 496.6C230.8 490.6 217.7 482.9 205.6 473.8L137.5 496.3C123.1 501.1 107.3 495.1 99.7 481.9L69.8 430.1C62.2 416.9 64.9 400.3 76.3 390.2L129.7 342.7C128.8 335.3 128.4 327.7 128.4 320C128.4 312.3 128.9 304.7 129.7 297.3L76.3 249.8C64.9 239.7 62.3 223 69.8 209.9L99.7 158.1C107.3 144.9 123.1 138.9 137.5 143.7L205.3 166.2C217.4 157.1 230.6 149.5 244.6 143.4L259.1 73.5zM320.3 400C364.5 399.8 400.2 363.9 400 319.7C399.8 275.5 363.9 239.8 319.7 240C275.5 240.2 239.8 276.1 240 320.3C240.2 364.5 276.1 400.2 320.3 400z"/>
</symbol>
<symbol id="video-slash" viewBox="0 0 640 640">
<path fill="currentColor" d="M73 39.1C63.6 29.7 48.4 29.7 39.1 39.1C29.8 48.5 29.7 63.7 39 73.1L567 601.1C576.4 610.5 591.6 610.5 600.9 601.1C610.2 591.7 610.3 576.5 600.9 567.2L447.9 414.2L447.9 192C447.9 156.7 419.2 128 383.9 128L161.8 128L73 39.1zM64 192L64 448C64 483.3 92.7 512 128 512L384 512C391.8 512 399.3 510.6 406.2 508L68 169.8C65.4 176.7 64 184.2 64 192zM496 400L569.5 458.8C573.7 462.2 578.9 464 584.3 464C597.4 464 608 453.4 608 440.3L608 199.7C608 186.6 597.4 176 584.3 176C578.9 176 573.7 177.8 569.5 181.2L496 240L496 400z"/>
</symbol>
<symbol id="camera-slash" viewBox="0 0 640 640">
<path fill="currentColor" d="M73 39.1C63.6 29.7 48.4 29.7 39.1 39.1C29.8 48.5 29.7 63.7 39 73.1L567 601.1C576.4 610.5 591.6 610.5 600.9 601.1C610.2 591.7 610.3 576.5 600.9 567.2L558.1 524.4C569.1 512.9 575.9 497.3 575.9 480.1L575.9 224.1C575.9 188.8 547.2 160.1 511.9 160.1L437.2 160.1L426.8 128.9C420.4 109.2 402.1 96 381.4 96L258.6 96C237.9 96 219.6 109.2 213.1 128.8L202.7 160L193.8 160L73 39.1zM293.5 259.7C301.9 257.3 310.8 256 320 256C373 256 416 299 416 352C416 361.2 414.7 370.1 412.3 378.5L293.5 259.7zM224 352C224 344 225 336.1 226.9 328.7L79.9 181.7C70 193 64 207.8 64 224L64 480C64 515.3 92.7 544 128 544L442.2 544L343.3 445.1C335.8 447 328 448 320 448C267 448 224 405 224 352z"/>
</symbol>
<symbol id="camera" viewBox="0 0 640 640">
<path fill="currentColor" d="M213.1 128.8L202.7 160L128 160C92.7 160 64 188.7 64 224L64 480C64 515.3 92.7 544 128 544L512 544C547.3 544 576 515.3 576 480L576 224C576 188.7 547.3 160 512 160L437.3 160L426.9 128.8C420.4 109.2 402.1 96 381.4 96L258.6 96C237.9 96 219.6 109.2 213.1 128.8zM320 256C373 256 416 299 416 352C416 405 373 448 320 448C267 448 224 405 224 352C224 299 267 256 320 256z"/>
</symbol>
<symbol id="microphone-slash" viewBox="0 0 640 640">
<path fill="currentColor" d="M73 39.1C63.6 29.7 48.4 29.7 39.1 39.1C29.8 48.5 29.7 63.7 39 73.1L567 601.1C576.4 610.5 591.6 610.5 600.9 601.1C610.2 591.7 610.3 576.5 600.9 567.2L456.7 422.8C490.9 388.2 512 340.6 512 288L512 248C512 234.7 501.3 224 488 224C474.7 224 464 234.7 464 248L464 288C464 327.3 448.3 362.9 422.7 388.9L388.8 355C405.6 337.7 416 314 416 288L416 160C416 107 373 64 320 64C267 64 224 107 224 160L224 190.2L73 39.2zM371.3 473.1L329.9 431.7C326.6 431.9 323.4 432 320.1 432C240.6 432 176.1 367.5 176.1 288L176.1 277.8L132.5 234.2C129.7 238.1 128.1 242.9 128.1 248L128.1 288C128.1 385.9 201.4 466.7 296.1 478.5L296.1 528L248.1 528C234.8 528 224.1 538.7 224.1 552C224.1 565.3 234.8 576 248.1 576L392.1 576C405.4 576 416.1 565.3 416.1 552C416.1 538.7 405.4 528 392.1 528L344.1 528L344.1 478.5C353.4 477.3 362.5 475.5 371.4 473.1z"/>
</symbol>
<symbol id="speaker" viewBox="0 0 640 640">
<path fill="currentColor" d="M128 128C128 92.7 156.7 64 192 64L448 64C483.3 64 512 92.7 512 128L512 512C512 547.3 483.3 576 448 576L192 576C156.7 576 128 547.3 128 512L128 128zM432 400C432 338.1 381.9 288 320 288C258.1 288 208 338.1 208 400C208 461.9 258.1 512 320 512C381.9 512 432 461.9 432 400zM320 336C355.3 336 384 364.7 384 400C384 435.3 355.3 464 320 464C284.7 464 256 435.3 256 400C256 364.7 284.7 336 320 336zM320 224C346.5 224 368 202.5 368 176C368 149.5 346.5 128 320 128C293.5 128 272 149.5 272 176C272 202.5 293.5 224 320 224z"/>
</symbol>
<symbol id="microphone-signal-meter" viewBox="0 0 640 640">
<path fill="currentColor" d="M376 64C323 64 280 107 280 160L280 288C280 341 323 384 376 384C429 384 472 341 472 288L472 160C472 107 429 64 376 64zM232 248C232 234.7 221.3 224 208 224C194.7 224 184 234.7 184 248L184 288C184 385.9 257.3 466.7 352 478.5L352 528L304 528C290.7 528 280 538.7 280 552C280 565.3 290.7 576 304 576L448 576C461.3 576 472 565.3 472 552C472 538.7 461.3 528 448 528L400 528L400 478.5C494.7 466.7 568 385.9 568 288L568 248C568 234.7 557.3 224 544 224C530.7 224 520 234.7 520 248L520 288C520 367.5 455.5 432 376 432C296.5 432 232 367.5 232 288L232 248zM120 128C120 110.3 105.7 96 88 96C70.3 96 56 110.3 56 128C56 145.7 70.3 160 88 160C105.7 160 120 145.7 120 128zM88 288C105.7 288 120 273.7 120 256C120 238.3 105.7 224 88 224C70.3 224 56 238.3 56 256C56 273.7 70.3 288 88 288zM120 384C120 366.3 105.7 352 88 352C70.3 352 56 366.3 56 384C56 401.7 70.3 416 88 416C105.7 416 120 401.7 120 384zM88 544C105.7 544 120 529.7 120 512C120 494.3 105.7 480 88 480C70.3 480 56 494.3 56 512C56 529.7 70.3 544 88 544z"/>
</symbol>
<symbol id="display" viewBox="0 0 640 640">
<path fill="currentColor" d="M512 160L512 416L128 416L128 160L512 160zM128 96C92.7 96 64 124.7 64 160L64 416C64 451.3 92.7 480 128 480L272 480L256 528L184 528C170.7 528 160 538.7 160 552C160 565.3 170.7 576 184 576L456 576C469.3 576 480 565.3 480 552C480 538.7 469.3 528 456 528L384 528L368 480L512 480C547.3 480 576 451.3 576 416L576 160C576 124.7 547.3 96 512 96L128 96z"/>
</symbol>
<symbol id="volume" viewBox="0 0 640 640">
<path fill="currentColor" d="M112 416L160 416L294.1 535.2C300.5 540.9 308.7 544 317.2 544C336.4 544 352 528.4 352 509.2L352 130.8C352 111.6 336.4 96 317.2 96C308.7 96 300.5 99.1 294.1 104.8L160 224L112 224C85.5 224 64 245.5 64 272L64 368C64 394.5 85.5 416 112 416zM505.1 171C494.8 162.6 479.7 164.2 471.3 174.5C462.9 184.8 464.5 199.9 474.8 208.3C507.3 234.7 528 274.9 528 320C528 365.1 507.3 405.3 474.8 431.8C464.5 440.2 463 455.3 471.3 465.6C479.6 475.9 494.8 477.4 505.1 469.1C548.3 433.9 576 380.2 576 320.1C576 260 548.3 206.3 505.1 171.1zM444.6 245.5C434.3 237.1 419.2 238.7 410.8 249C402.4 259.3 404 274.4 414.3 282.8C425.1 291.6 432 305 432 320C432 335 425.1 348.4 414.3 357.3C404 365.7 402.5 380.8 410.8 391.1C419.1 401.4 434.3 402.9 444.6 394.6C466.1 376.9 480 350.1 480 320C480 289.9 466.1 263.1 444.5 245.5z"/>
</symbol>
<symbol id="eye" viewBox="0 0 640 640">
<path fill="currentColor" d="M320 96C239.2 96 174.5 132.8 127.4 176.6C80.6 220.1 49.3 272 34.4 307.7C31.1 315.6 31.1 324.4 34.4 332.3C49.3 368 80.6 420 127.4 463.4C174.5 507.1 239.2 544 320 544C400.8 544 465.5 507.2 512.6 463.4C559.4 419.9 590.7 368 605.6 332.3C608.9 324.4 608.9 315.6 605.6 307.7C590.7 272 559.4 220 512.6 176.6C465.5 132.9 400.8 96 320 96zM176 320C176 240.5 240.5 176 320 176C399.5 176 464 240.5 464 320C464 399.5 399.5 464 320 464C240.5 464 176 399.5 176 320zM320 256C320 291.3 291.3 320 256 320C244.5 320 233.7 317 224.3 311.6C223.3 322.5 224.2 333.7 227.2 344.8C240.9 396 293.6 426.4 344.8 412.7C396 399 426.4 346.3 412.7 295.1C400.5 249.4 357.2 220.3 311.6 224.3C316.9 233.6 320 244.4 320 256z"/>
</symbol>
<symbol id="volume-xmark" viewBox="0 0 640 640">
<path fill="currentColor" d="M80 416L128 416L262.1 535.2C268.5 540.9 276.7 544 285.2 544C304.4 544 320 528.4 320 509.2L320 130.8C320 111.6 304.4 96 285.2 96C276.7 96 268.5 99.1 262.1 104.8L128 224L80 224C53.5 224 32 245.5 32 272L32 368C32 394.5 53.5 416 80 416zM399 239C389.6 248.4 389.6 263.6 399 272.9L446 319.9L399 366.9C389.6 376.3 389.6 391.5 399 400.8C408.4 410.1 423.6 410.2 432.9 400.8L479.9 353.8L526.9 400.8C536.3 410.2 551.5 410.2 560.8 400.8C570.1 391.4 570.2 376.2 560.8 366.9L513.8 319.9L560.8 272.9C570.2 263.5 570.2 248.3 560.8 239C551.4 229.7 536.2 229.6 526.9 239L479.9 286L432.9 239C423.5 229.6 408.3 229.6 399 239z"/>
</symbol>
<symbol id="phone-hangup" viewBox="0 0 640 640">
<path fill="currentColor" d="M602 430.2C591.9 447.9 570.2 455.3 551.4 447.6L453.9 407.5C437.3 400.7 427.2 383.8 429 366L434.7 309.3C361.1 281.6 279.8 280.3 205.5 305.4L211.6 366.1C213.4 383.9 203.3 400.8 186.7 407.6L89.1 447.6C70.3 455.4 48.6 447.9 38.5 430.2L35.6 425.2C2.4 367 7.6 283.8 72.9 241.3C222.8 143.8 417.6 143.8 567.5 241.3C632.9 283.8 638 367.1 604.8 425.2L601.9 430.2z"/>
</symbol>
<symbol id="microphone" viewBox="0 0 640 640">
<path fill="currentColor" d="M320 64C267 64 224 107 224 160L224 288C224 341 267 384 320 384C373 384 416 341 416 288L416 160C416 107 373 64 320 64zM176 248C176 234.7 165.3 224 152 224C138.7 224 128 234.7 128 248L128 288C128 385.9 201.3 466.7 296 478.5L296 528L248 528C234.7 528 224 538.7 224 552C224 565.3 234.7 576 248 576L392 576C405.3 576 416 565.3 416 552C416 538.7 405.3 528 392 528L344 528L344 478.5C438.7 466.7 512 385.9 512 288L512 248C512 234.7 501.3 224 488 224C474.7 224 464 234.7 464 248L464 288C464 367.5 399.5 432 320 432C240.5 432 176 367.5 176 288L176 248z"/>
</symbol>
<symbol id="video" viewBox="0 0 640 640">
<path fill="currentColor" d="M128 128C92.7 128 64 156.7 64 192L64 448C64 483.3 92.7 512 128 512L384 512C419.3 512 448 483.3 448 448L448 192C448 156.7 419.3 128 384 128L128 128zM496 400L569.5 458.8C573.7 462.2 578.9 464 584.3 464C597.4 464 608 453.4 608 440.3L608 199.7C608 186.6 597.4 176 584.3 176C578.9 176 573.7 177.8 569.5 181.2L496 240L496 400z"/>
</symbol>
</svg>