<?xml version="1.0" encoding="UTF-8"?>
<svg xmlns="http://www.w3.org/2000/svg" style="display: none;">
<symbol id="microphone" viewBox="0 0 384 512">
<path fill="currentColor" d="M192 0C139 0 96 43 96 96l0 128c0 53 43 96 96 96s96-43 96-96l0-128c0-53-43-96-96-96zM48 184c0-13.3-10.7-24-24-24S0 170.7 0 184l0 40c0 97.9 73.3 178.7 168 190.5l0 49.5-48 0c-13.3 0-24 10.7-24 24s10.7 24 24 24l144 0c13.3 0 24-10.7 24-24s-10.7-24-24-24l-48 0 0-49.5c94.7-11.8 168-92.6 168-190.5l0-40c0-13.3-10.7-24-24-24s-24 10.7-24 24l0 40c0 79.5-64.5 144-144 144S48 303.5 48 224l0-40z"/>
</symbol>
<symbol id="microphone-signal-meter" viewBox="0 0 576 512">
<path fill="currentColor" d="M344 0c-53 0-96 43-96 96l0 128c0 53 43 96 96 96s96-43 96-96l0-128c0-53-43-96-96-96zM200 184c0-13.3-10.7-24-24-24s-24 10.7-24 24l0 40c0 97.9 73.3 178.7 168 190.5l0 49.5-48 0c-13.3 0-24 10.7-24 24s10.7 24 24 24l144 0c13.3 0 24-10.7 24-24s-10.7-24-24-24l-48 0 0-49.5c94.7-11.8 168-92.6 168-190.5l0-40c0-13.3-10.7-24-24-24s-24 10.7-24 24l0 40c0 79.5-64.5 144-144 144S200 303.5 200 224l0-40zM88 64a32 32 0 1 0 -64 0 32 32 0 1 0 64 0zM56 224a32 32 0 1 0 0-64 32 32 0 1 0 0 64zm32 96a32 32 0 1 0 -64 0 32 32 0 1 0 64 0zM56 480a32 32 0 1 0 0-64 32 32 0 1 0 0 64z"/>
</symbol>
<symbol id="eye" viewBox="0 0 576 512">
<path fill="currentColor" d="M288 32c-80.8 0-145.5 36.8-192.6 80.6-46.8 43.5-78.1 95.4-93 131.1-3.3 7.9-3.3 16.7 0 24.6 14.9 35.7 46.2 87.7 93 131.1 47.1 43.7 111.8 80.6 192.6 80.6s145.5-36.8 192.6-80.6c46.8-43.5 78.1-95.4 93-131.1 3.3-7.9 3.3-16.7 0-24.6-14.9-35.7-46.2-87.7-93-131.1-47.1-43.7-111.8-80.6-192.6-80.6zM144 256a144 144 0 1 1 288 0 144 144 0 1 1 -288 0zm144-64c0 35.3-28.7 64-64 64-11.5 0-22.3-3-31.7-8.4-1 10.9-.1 22.1 2.9 33.2 13.7 51.2 66.4 81.6 117.6 67.9s81.6-66.4 67.9-117.6c-12.2-45.7-55.5-74.8-101.1-70.8 5.3 9.3 8.4 20.1 8.4 31.7z"/>
</symbol>
<symbol id="speaker" viewBox="0 0 384 512">
<path fill="currentColor" d="M0 64C0 28.7 28.7 0 64 0L320 0c35.3 0 64 28.7 64 64l0 384c0 35.3-28.7 64-64 64L64 512c-35.3 0-64-28.7-64-64L0 64zM304 336a112 112 0 1 0 -224 0 112 112 0 1 0 224 0zM192 272a64 64 0 1 1 0 128 64 64 0 1 1 0-128zm0-112a48 48 0 1 0 0-96 48 48 0 1 0 0 96z"/>
</symbol>
<symbol id="display-slash" viewBox="0 0 576 512">
<path fill="currentColor" d="M41-24.9c-9.4-9.4-24.6-9.4-33.9 0S-2.3-.3 7 9.1l528 528c9.4 9.4 24.6 9.4 33.9 0s9.4-24.6 0-33.9L481.8 416c34.5-1 62.2-29.2 62.2-64l0-256c0-35.3-28.7-64-64-64L97.8 32 41-24.9zM161.8 96l318.2 0 0 256-62.2 0-256-256zM282 352l-186 0 0-186-64-64 0 250c0 35.3 28.7 64 64 64l144 0-16 48-72 0c-13.3 0-24 10.7-24 24s10.7 24 24 24l272 0c5.1 0 9.8-1.6 13.7-4.3l-43.7-43.7-42 0-16-48 10 0-64-64z"/>
</symbol>
<symbol id="display" viewBox="0 0 512 512">
<path fill="currentColor" d="M448 96l0 256-384 0 0-256 384 0zM64 32C28.7 32 0 60.7 0 96L0 352c0 35.3 28.7 64 64 64l144 0-16 48-72 0c-13.3 0-24 10.7-24 24s10.7 24 24 24l272 0c13.3 0 24-10.7 24-24s-10.7-24-24-24l-72 0-16-48 144 0c35.3 0 64-28.7 64-64l0-256c0-35.3-28.7-64-64-64L64 32z"/>
</symbol>
<symbol id="gear" viewBox="0 0 512 512">
<path fill="currentColor" d="M195.1 9.5C198.1-5.3 211.2-16 226.4-16l59.8 0c15.2 0 28.3 10.7 31.3 25.5L332 79.5c14.1 6 27.3 13.7 39.3 22.8l67.8-22.5c14.4-4.8 30.2 1.2 37.8 14.4l29.9 51.8c7.6 13.2 4.9 29.8-6.5 39.9L447 233.3c.9 7.4 1.3 15 1.3 22.7s-.5 15.3-1.3 22.7l53.4 47.5c11.4 10.1 14 26.8 6.5 39.9l-29.9 51.8c-7.6 13.1-23.4 19.2-37.8 14.4l-67.8-22.5c-12.1 9.1-25.3 16.7-39.3 22.8l-14.4 69.9c-3.1 14.9-16.2 25.5-31.3 25.5l-59.8 0c-15.2 0-28.3-10.7-31.3-25.5l-14.4-69.9c-14.1-6-27.2-13.7-39.3-22.8L73.5 432.3c-14.4 4.8-30.2-1.2-37.8-14.4L5.8 366.1c-7.6-13.2-4.9-29.8 6.5-39.9l53.4-47.5c-.9-7.4-1.3-15-1.3-22.7s.5-15.3 1.3-22.7L12.3 185.8c-11.4-10.1-14-26.8-6.5-39.9L35.7 94.1c7.6-13.2 23.4-19.2 37.8-14.4l67.8 22.5c12.1-9.1 25.3-16.7 39.3-22.8L195.1 9.5zM256.3 336a80 80 0 1 0 -.6-160 80 80 0 1 0 .6 160z"/>
</symbol>
<symbol id="camera-slash" viewBox="0 0 576 512">
<path fill="currentColor" d="M41-24.9c-9.4-9.4-24.6-9.4-33.9 0S-2.3-.3 7 9.1l528 528c9.4 9.4 24.6 9.4 33.9 0s9.4-24.6 0-33.9l-42.8-42.8c11-11.5 17.8-27.1 17.8-44.3l0-256c0-35.3-28.7-64-64-64l-74.7 0-10.4-31.2C388.4 45.2 370.1 32 349.4 32L226.6 32c-20.7 0-39 13.2-45.5 32.8L170.7 96 161.8 96 41-24.9zM261.5 195.7c8.4-2.4 17.3-3.7 26.5-3.7 53 0 96 43 96 96 0 9.2-1.3 18.1-3.7 26.5L261.5 195.7zM192 288c0-8 1-15.9 2.9-23.3L47.9 117.7C38 129 32 143.8 32 160l0 256c0 35.3 28.7 64 64 64l314.2 0-98.9-98.9c-7.5 1.9-15.3 2.9-23.3 2.9-53 0-96-43-96-96z"/>
</symbol>
<symbol id="eye-slash" viewBox="0 0 576 512">
<path fill="currentColor" d="M41-24.9c-9.4-9.4-24.6-9.4-33.9 0S-2.3-.3 7 9.1l528 528c9.4 9.4 24.6 9.4 33.9 0s9.4-24.6 0-33.9l-96.4-96.4c2.7-2.4 5.4-4.8 8-7.2 46.8-43.5 78.1-95.4 93-131.1 3.3-7.9 3.3-16.7 0-24.6-14.9-35.7-46.2-87.7-93-131.1-47.1-43.7-111.8-80.6-192.6-80.6-56.8 0-105.6 18.2-146 44.2L41-24.9zM204.5 138.7c23.5-16.8 52.4-26.7 83.5-26.7 79.5 0 144 64.5 144 144 0 31.1-9.9 59.9-26.7 83.5l-34.7-34.7c12.7-21.4 17-47.7 10.1-73.7-13.7-51.2-66.4-81.6-117.6-67.9-8.6 2.3-16.7 5.7-24 10l-34.7-34.7zM325.3 395.1c-11.9 3.2-24.4 4.9-37.3 4.9-79.5 0-144-64.5-144-144 0-12.9 1.7-25.4 4.9-37.3L69.4 139.2c-32.6 36.8-55 75.8-66.9 104.5-3.3 7.9-3.3 16.7 0 24.6 14.9 35.7 46.2 87.7 93 131.1 47.1 43.7 111.8 80.6 192.6 80.6 37.3 0 71.2-7.9 101.5-20.6l-64.2-64.2z"/>
</symbol>
<symbol id="volume" viewBox="0 0 512 512">
<path fill="currentColor" d="M48 352l48 0 134.1 119.2c6.4 5.7 14.6 8.8 23.1 8.8 19.2 0 34.8-15.6 34.8-34.8l0-378.4c0-19.2-15.6-34.8-34.8-34.8-8.5 0-16.7 3.1-23.1 8.8L96 160 48 160c-26.5 0-48 21.5-48 48l0 96c0 26.5 21.5 48 48 48zM441.1 107c-10.3-8.4-25.4-6.8-33.8 3.5s-6.8 25.4 3.5 33.8C443.3 170.7 464 210.9 464 256s-20.7 85.3-53.2 111.8c-10.3 8.4-11.8 23.5-3.5 33.8s23.5 11.8 33.8 3.5c43.2-35.2 70.9-88.9 70.9-149s-27.7-113.8-70.9-149zm-60.5 74.5c-10.3-8.4-25.4-6.8-33.8 3.5s-6.8 25.4 3.5 33.8C361.1 227.6 368 241 368 256s-6.9 28.4-17.7 37.3c-10.3 8.4-11.8 23.5-3.5 33.8s23.5 11.8 33.8 3.5C402.1 312.9 416 286.1 416 256s-13.9-56.9-35.5-74.5z"/>
</symbol>
<symbol id="volume-xmark" viewBox="0 0 576 512">
<path fill="currentColor" d="M48 352l48 0 134.1 119.2c6.4 5.7 14.6 8.8 23.1 8.8 19.2 0 34.8-15.6 34.8-34.8l0-378.4c0-19.2-15.6-34.8-34.8-34.8-8.5 0-16.7 3.1-23.1 8.8L96 160 48 160c-26.5 0-48 21.5-48 48l0 96c0 26.5 21.5 48 48 48zM367 175c-9.4 9.4-9.4 24.6 0 33.9l47 47-47 47c-9.4 9.4-9.4 24.6 0 33.9s24.6 9.4 33.9 0l47-47 47 47c9.4 9.4 24.6 9.4 33.9 0s9.4-24.6 0-33.9l-47-47 47-47c9.4-9.4 9.4-24.6 0-33.9s-24.6-9.4-33.9 0l-47 47-47-47c-9.4-9.4-24.6-9.4-33.9 0z"/>
</symbol>
<symbol id="video" viewBox="0 0 576 512">
<path fill="currentColor" d="M96 64c-35.3 0-64 28.7-64 64l0 256c0 35.3 28.7 64 64 64l256 0c35.3 0 64-28.7 64-64l0-256c0-35.3-28.7-64-64-64L96 64zM464 336l73.5 58.8c4.2 3.4 9.4 5.2 14.8 5.2 13.1 0 23.7-10.6 23.7-23.7l0-240.6c0-13.1-10.6-23.7-23.7-23.7-5.4 0-10.6 1.8-14.8 5.2L464 176 464 336z"/>
</symbol>
<symbol id="microphone-slash" viewBox="0 0 576 512">
<path fill="currentColor" d="M41-24.9c-9.4-9.4-24.6-9.4-33.9 0S-2.3-.3 7 9.1l528 528c9.4 9.4 24.6 9.4 33.9 0s9.4-24.6 0-33.9L424.7 358.8C458.9 324.2 480 276.6 480 224l0-40c0-13.3-10.7-24-24-24s-24 10.7-24 24l0 40c0 39.3-15.7 74.9-41.3 100.9L356.8 291C373.6 273.7 384 250 384 224l0-128c0-53-43-96-96-96s-96 43-96 96l0 30.2-151-151zm298.3 434l-41.4-41.4c-3.3 .2-6.5 .3-9.8 .3-79.5 0-144-64.5-144-144l0-10.2-43.6-43.6c-2.8 3.9-4.4 8.7-4.4 13.8l0 40c0 97.9 73.3 178.7 168 190.5l0 49.5-48 0c-13.3 0-24 10.7-24 24s10.7 24 24 24l144 0c13.3 0 24-10.7 24-24s-10.7-24-24-24l-48 0 0-49.5c9.3-1.2 18.4-3 27.3-5.4z"/>
</symbol>
<symbol id="video-slash" viewBox="0 0 576 512">
<path fill="currentColor" d="M41-24.9c-9.4-9.4-24.6-9.4-33.9 0S-2.3-.3 7 9.1l528 528c9.4 9.4 24.6 9.4 33.9 0s9.4-24.6 0-33.9l-153-153 0-222.2c0-35.3-28.7-64-64-64L129.8 64 41-24.9zM32 128l0 256c0 35.3 28.7 64 64 64l256 0c7.8 0 15.3-1.4 22.2-4L36 105.8c-2.6 6.9-4 14.4-4 22.2zM464 336l73.5 58.8c4.2 3.4 9.4 5.2 14.8 5.2 13.1 0 23.7-10.6 23.7-23.7l0-240.6c0-13.1-10.6-23.7-23.7-23.7-5.4 0-10.6 1.8-14.8 5.2L464 176 464 336z"/>
</symbol>
<symbol id="camera" viewBox="0 0 512 512">
<path fill="currentColor" d="M149.1 64.8L138.7 96 64 96C28.7 96 0 124.7 0 160L0 416c0 35.3 28.7 64 64 64l384 0c35.3 0 64-28.7 64-64l0-256c0-35.3-28.7-64-64-64l-74.7 0-10.4-31.2C356.4 45.2 338.1 32 317.4 32L194.6 32c-20.7 0-39 13.2-45.5 32.8zM256 192a96 96 0 1 1 0 192 96 96 0 1 1 0-192z"/>
</symbol>
<symbol id="phone-hangup" viewBox="0 0 640 512">
<path fill="currentColor" d="M602 366.2c-10.1 17.7-31.8 25.1-50.6 17.4l-97.5-40.1c-16.6-6.8-26.7-23.7-24.9-41.5l5.7-56.7c-73.6-27.7-154.9-29-229.2-3.9l6.1 60.7c1.8 17.8-8.3 34.7-24.9 41.5L89.1 383.6c-18.8 7.8-40.5 .3-50.6-17.4l-2.9-5c-33.2-58.2-28-141.4 37.3-183.9 149.9-97.5 344.7-97.5 494.6 0 65.4 42.5 70.5 125.8 37.3 183.9l-2.9 5z"/>
</symbol>
</svg>